<svg xmlns="http://www.w3.org/2000/svg" width="128" height="128" viewBox="0 0 128 128">
  <defs>
    <linearGradient id="paper" x1="0" y1="0" x2="0" y2="1">
      <stop offset="0" stop-color="#ffffff"/>
      <stop offset="1" stop-color="#e8e6e3"/>
    </linearGradient>
    <linearGradient id="fold" x1="0" y1="0" x2="1" y2="1">
      <stop offset="0" stop-color="#f6f5f4"/>
      <stop offset="1" stop-color="#c0bfbc"/>
    </linearGradient>
  </defs>
  <rect x="30" y="18" width="80" height="102" rx="8" fill="#9a9996"/>
  <rect x="25" y="14" width="80" height="102" rx="8" fill="#c0bfbc"/>
  <path d="M26 8h54l26 26v80a8 8 0 0 1-8 8H26a8 8 0 0 1-8-8V16a8 8 0 0 1 8-8z" fill="url(#paper)"/>
  <path d="M80 8v18a8 8 0 0 0 8 8h18z" fill="url(#fold)"/>
  <g fill="#c0bfbc">
    <rect x="32" y="46" width="60" height="5" rx="2.5"/>
    <rect x="32" y="58" width="52" height="5" rx="2.5"/>
    <rect x="32" y="70" width="60" height="5" rx="2.5"/>
    <rect x="32" y="82" width="44" height="5" rx="2.5"/>
    <rect x="32" y="94" width="56" height="5" rx="2.5"/>
  </g>
  <path d="M34 8h16v32l-8-6-8 6z" fill="#3584e4"/>
  <path d="M34 8h16v4H34z" fill="#1c71d8"/>
</svg>
